<?xml version="1.0" encoding="UTF-8" standalone="no"?>
<!-- Created with Inkscape (http://www.inkscape.org/) -->

<svg
   width="43.390388mm"
   height="21.979507mm"
   viewBox="0 0 43.390389 21.979508"
   version="1.1"
   id="svg1796"
   inkscape:version="1.1 (c4e8f9e, 2021-05-24)"
   sodipodi:docname="aedes-aegypti.svg"
   xmlns:inkscape="http://www.inkscape.org/namespaces/inkscape"
   xmlns:sodipodi="http://sodipodi.sourceforge.net/DTD/sodipodi-0.dtd"
   xmlns="http://www.w3.org/2000/svg"
   xmlns:svg="http://www.w3.org/2000/svg">
  <sodipodi:namedview
     id="namedview1798"
     pagecolor="#ffffff"
     bordercolor="#999999"
     borderopacity="1"
     inkscape:pageshadow="0"
     inkscape:pageopacity="0"
     inkscape:pagecheckerboard="0"
     inkscape:document-units="mm"
     showgrid="false"
     fit-margin-top="0"
     fit-margin-left="0"
     fit-margin-right="0"
     fit-margin-bottom="0"
     inkscape:zoom="4.5507172"
     inkscape:cx="132.50659"
     inkscape:cy="56.804233"
     inkscape:window-width="1465"
     inkscape:window-height="1003"
     inkscape:window-x="615"
     inkscape:window-y="298"
     inkscape:window-maximized="0"
     inkscape:current-layer="layer1" />
  <defs
     id="defs1793">
    <rect
       x="140.12862"
       y="162.48956"
       width="265.34995"
       height="129.69351"
       id="rect13640" />
  </defs>
  <g
     inkscape:label="Camada 1"
     inkscape:groupmode="layer"
     id="layer1"
     transform="translate(-40.636128,-47.350977)">
    <g
       id="g66125"
       transform="matrix(1.25,0,0,1.25,-15.58283,-14.585183)">
      <g
         aria-label="Aedes"
         id="text4662"
         style="font-size:11.2889px;line-height:1.25;stroke-width:0.264583">
        <path
           d="m 47.808416,54.708309 1.868621,-3.511245 h 0.02205 l 0.457509,3.511245 z m 2.745054,2.877346 h 1.284333 L 50.52591,49.548928 h -1.01975 l -4.530994,8.036727 h 1.289845 l 0.975652,-1.796963 h 3.048224 z"
           style="font-style:italic;font-family:'DIN Alternate';-inkscape-font-specification:'DIN Alternate Italic'"
           id="path64130" />
        <path
           d="m 57.509814,55.160306 0.187414,-0.948092 q 0.214974,-1.129992 -0.341754,-1.774915 -0.551216,-0.633898 -1.53238,-0.644922 -0.4079,0 -0.854385,0.148828 -0.457509,0.148828 -0.865408,0.48507 -0.402388,0.330729 -0.733118,0.903994 -0.325217,0.56224 -0.496094,1.411112 -0.176389,0.881946 -0.03858,1.433162 0.110243,0.573264 0.413412,0.892969 0.15434,0.154341 0.347266,0.259072 0.181901,0.121267 0.380339,0.192925 0.4079,0.132292 0.859897,0.132292 1.179601,0.01102 2.243448,-0.926042 l -0.68902,-0.711069 v 0 q -0.661459,0.556728 -1.361503,0.556728 -0.600825,0 -0.898482,-0.363802 -0.325217,-0.358291 -0.187413,-1.04731 z m -3.378953,-0.948092 q 0.170877,-0.666971 0.56224,-1.008725 0.396876,-0.325217 0.915019,-0.325217 0.518143,0 0.782726,0.325217 0.270096,0.341754 0.154341,1.008725 z"
           style="font-style:italic;font-family:'DIN Alternate';-inkscape-font-specification:'DIN Alternate Italic'"
           id="path64132" />
        <path
           d="m 61.776225,56.98483 -0.121267,0.600825 h 1.152041 l 1.60955,-8.036727 h -1.152041 l -0.584289,2.921444 v 0 q -0.259071,-0.303168 -0.567752,-0.496094 -0.341754,-0.181901 -0.782726,-0.181901 -1.052823,0.02756 -1.681209,0.749653 -0.292144,0.270096 -0.457509,0.711069 -0.181901,0.43546 -0.385851,1.466234 -0.20395,1.014237 -0.198438,1.45521 -0.01654,0.463021 0.170877,0.733117 0.192926,0.330729 0.53468,0.529167 0.330729,0.20395 0.848872,0.214974 0.915018,-0.02205 1.615062,-0.666971 z m -0.325217,-4.040412 q 0.4079,0 0.617362,0.159852 0.20395,0.159853 0.237023,0.418924 0.06063,0.259072 0.03858,0.562241 -0.04961,0.303168 -0.115756,0.633898 -0.06063,0.303169 -0.132291,0.617362 -0.104731,0.319705 -0.264584,0.578776 -0.143316,0.259072 -0.413412,0.418924 -0.270096,0.165365 -0.677995,0.165365 -0.4079,0 -0.589801,-0.15434 -0.20395,-0.159853 -0.264584,-0.4079 -0.05512,-0.259072 -0.02205,-0.584289 0.02756,-0.308681 0.09371,-0.633898 0.06615,-0.341754 0.165365,-0.666971 0.09371,-0.303169 0.253559,-0.56224 0.159853,-0.259072 0.424436,-0.4079 0.242535,-0.137804 0.650435,-0.137804 z"
           style="font-style:italic;font-family:'DIN Alternate';-inkscape-font-specification:'DIN Alternate Italic'"
           id="path64134" />
        <path
           d="m 69.019202,55.160306 0.187413,-0.948092 q 0.214974,-1.129992 -0.341754,-1.774915 -0.551215,-0.633898 -1.53238,-0.644922 -0.407899,0 -0.854384,0.148828 -0.457509,0.148828 -0.865409,0.48507 -0.402388,0.330729 -0.733117,0.903994 -0.325217,0.56224 -0.496094,1.411112 -0.176389,0.881946 -0.03858,1.433162 0.110243,0.573264 0.413411,0.892969 0.154341,0.154341 0.347266,0.259072 0.181902,0.121267 0.380339,0.192925 0.4079,0.132292 0.859897,0.132292 1.179602,0.01102 2.243449,-0.926042 l -0.68902,-0.711069 v 0 q -0.661459,0.556728 -1.361503,0.556728 -0.600826,0 -0.898482,-0.363802 -0.325218,-0.358291 -0.187414,-1.04731 z m -3.378953,-0.948092 q 0.170877,-0.666971 0.56224,-1.008725 0.396875,-0.325217 0.915018,-0.325217 0.518143,0 0.782727,0.325217 0.270096,0.341754 0.15434,1.008725 z"
           style="font-style:italic;font-family:'DIN Alternate';-inkscape-font-specification:'DIN Alternate Italic'"
           id="path64136" />
        <path
           d="m 70.259437,55.838301 -0.959116,0.788239 q 0.915018,1.025261 2.315107,1.025261 1.030773,-0.01102 1.785939,-0.474046 0.755166,-0.451996 0.931555,-1.284332 0.143316,-0.711069 -0.132292,-1.17409 -0.303169,-0.474046 -1.179602,-0.540192 l -0.937067,-0.07166 q -0.4079,-0.0441 -0.540191,-0.20395 -0.154341,-0.143316 -0.104732,-0.336241 0.06063,-0.303169 0.325218,-0.496095 0.253559,-0.192925 0.793751,-0.192925 0.474045,0 0.810287,0.137804 0.336242,0.15434 0.622874,0.391363 v 0 l 0.876433,-0.832336 q -0.347266,-0.363802 -0.832336,-0.578776 -0.259071,-0.09922 -0.56224,-0.154341 -0.303169,-0.04961 -0.700044,-0.04961 -0.915018,0 -1.598526,0.440972 -0.700044,0.440973 -0.887458,1.322918 -0.132291,0.733117 0.248048,1.141017 0.369314,0.418924 1.07487,0.48507 l 0.997701,0.0882 q 0.319705,0.01102 0.48507,0.137804 0.165365,0.121267 0.09922,0.429948 -0.06615,0.347266 -0.418924,0.540192 -0.352778,0.192925 -0.848873,0.192925 -1.107943,0 -1.664671,-0.733117 z"
           style="font-style:italic;font-family:'DIN Alternate';-inkscape-font-specification:'DIN Alternate Italic'"
           id="path64138" />
      </g>
      <g
         aria-label="aegypti"
         id="text6518"
         style="font-size:11.2889px;line-height:1.25;fill:#0d6efd;fill-opacity:1;stroke-width:0.264583">
        <path
           d="m 48.742221,64.751282 h 1.152042 l 0.782726,-3.908121 q 0.198438,-1.04731 -0.363802,-1.477258 -0.556728,-0.418924 -1.642624,-0.4079 -1.273308,-0.02205 -2.100132,0.837848 l 0.76619,0.68902 v 0 q 0.198438,-0.248047 0.479558,-0.352778 0.264583,-0.08819 0.694532,-0.08819 1.190626,-0.02205 1.025261,0.733118 l -0.121267,0.600825 h -1.593014 q -0.915018,0.01102 -1.488283,0.496094 -0.567752,0.474046 -0.711068,1.196138 -0.148829,0.755166 0.297656,1.240236 0.418924,0.496094 1.37804,0.507119 0.584289,0 0.942579,-0.143316 0.363802,-0.137804 0.578777,-0.429949 h 0.02205 z m 0.402388,-2.011938 q -0.12678,0.644922 -0.435461,0.826824 -0.336241,0.181901 -1.052822,0.170877 -0.573264,0 -0.777214,-0.225999 -0.220486,-0.20395 -0.159853,-0.496094 0.121268,-0.666971 1.129993,-0.68902 h 1.378039 z"
           style="font-style:italic;font-family:'DIN Alternate';-inkscape-font-specification:'DIN Alternate Italic';fill:#0d6efd;fill-opacity:1"
           id="path64141" />
        <path
           d="m 56.304903,62.325932 0.187413,-0.948091 q 0.214974,-1.129993 -0.341754,-1.774915 -0.551216,-0.633898 -1.53238,-0.644923 -0.407899,0 -0.854384,0.148829 -0.457509,0.148828 -0.865409,0.485069 -0.402388,0.33073 -0.733117,0.903994 -0.325218,0.562241 -0.496094,1.411113 -0.17639,0.881945 -0.03859,1.433161 0.110244,0.573265 0.413412,0.89297 0.154341,0.15434 0.347266,0.259071 0.181901,0.121268 0.380339,0.192926 0.4079,0.132292 0.859897,0.132292 1.179602,0.01102 2.243448,-0.926043 l -0.689019,-0.711068 v 0 q -0.661459,0.556728 -1.361504,0.556728 -0.600825,0 -0.898481,-0.363803 -0.325218,-0.35829 -0.187414,-1.04731 z M 52.92595,61.377841 q 0.170877,-0.666971 0.56224,-1.008725 0.396875,-0.325218 0.915018,-0.325218 0.518143,0 0.782727,0.325218 0.270095,0.341754 0.15434,1.008725 z"
           style="font-style:italic;font-family:'DIN Alternate';-inkscape-font-specification:'DIN Alternate Italic';fill:#0d6efd;fill-opacity:1"
           id="path64143" />
        <path
           d="m 60.367363,64.150456 -0.121267,0.589801 q -0.12678,0.584289 -0.545704,0.915019 -0.424436,0.325217 -1.014237,0.325217 -0.308681,-0.01102 -0.567752,-0.170877 Q 57.859331,65.6663 57.67743,65.46235 v 0 l -1.036286,0.711069 q 0.633899,0.937067 1.796964,0.959115 1.014237,0 1.86311,-0.622874 0.84336,-0.606337 1.12448,-1.896182 l 1.118968,-5.583817 h -1.152041 l -0.121268,0.606338 v 0 q -0.490582,-0.677996 -1.344966,-0.677996 -0.556728,0.01103 -0.97014,0.214974 -0.424436,0.214975 -0.683508,0.48507 -0.28112,0.275608 -0.463021,0.677996 -0.187413,0.4079 -0.413412,1.559941 -0.225998,1.129992 -0.20395,1.53238 0.01654,0.407899 0.187414,0.68902 0.15434,0.248047 0.496094,0.463021 0.325217,0.225998 0.881945,0.237023 0.909506,-0.02205 1.60955,-0.666972 z m -1.819012,-2.254472 q 0.132292,-0.666971 0.225999,-0.926043 0.09371,-0.259071 0.264583,-0.418924 0.148829,-0.15434 0.413412,-0.303169 0.253559,-0.126779 0.589801,-0.137804 0.336242,0.01102 0.534679,0.137804 0.198438,0.148829 0.281121,0.303169 0.115755,0.159853 0.110243,0.418924 -0.01654,0.259072 -0.148829,0.926043 -0.132291,0.655947 -0.214974,0.903994 -0.104731,0.259071 -0.28112,0.429948 -0.143316,0.15434 -0.396875,0.28112 -0.259072,0.154341 -0.595313,0.154341 -0.336242,0 -0.529168,-0.154341 -0.209462,-0.12678 -0.297656,-0.28112 -0.110243,-0.170877 -0.09371,-0.429948 0.0055,-0.248047 0.137804,-0.903994 z"
           style="font-style:italic;font-family:'DIN Alternate';-inkscape-font-specification:'DIN Alternate Italic';fill:#0d6efd;fill-opacity:1"
           id="path64145" />
        <path
           d="m 64.165241,64.525283 -0.507119,0.959116 q -0.126779,0.248047 -0.341754,0.374827 -0.220486,0.121267 -0.446484,0.121267 h -0.336242 l -0.214974,1.085895 h 0.380339 q 0.534679,0 1.008725,-0.237023 0.468533,-0.248047 0.832336,-0.892969 l 3.847486,-6.906735 H 67.163855 L 65.008601,63.037 h -0.02205 L 64.435337,59.029661 H 63.21715 Z"
           style="font-style:italic;font-family:'DIN Alternate';-inkscape-font-specification:'DIN Alternate Italic';fill:#0d6efd;fill-opacity:1"
           id="path64147" />
        <path
           d="m 67.43395,67.066388 h 1.152041 l 0.584289,-2.926956 v 0 q 0.253559,0.308681 0.595313,0.48507 0.308681,0.192926 0.749654,0.192926 0.534679,-0.01103 0.953603,-0.214975 0.429948,-0.198437 0.733117,-0.529167 0.292145,-0.28112 0.468534,-0.722092 0.170877,-0.440973 0.374826,-1.45521 0.20395,-1.041798 0.209462,-1.477259 0,-0.440972 -0.181901,-0.711068 -0.341754,-0.722093 -1.389064,-0.749654 -0.909506,0.02756 -1.60955,0.666971 v 0 l 0.121268,-0.595313 H 69.0435 Z m 2.960029,-3.401001 q -0.385851,0 -0.578776,-0.165365 -0.20395,-0.159853 -0.259072,-0.418924 -0.05512,-0.259072 -0.02205,-0.578777 0.02756,-0.303169 0.08819,-0.606337 0.06063,-0.325218 0.159853,-0.644923 0.09371,-0.303169 0.248047,-0.56224 0.165365,-0.259071 0.43546,-0.418924 0.25356,-0.159853 0.639411,-0.159853 0.407899,0 0.617361,0.137804 0.209462,0.148829 0.259072,0.4079 0.06063,0.248047 0.03307,0.573265 -0.05512,0.325217 -0.121268,0.666971 -0.06615,0.325217 -0.137804,0.633898 -0.104731,0.314193 -0.264583,0.573264 -0.148829,0.248048 -0.418924,0.4079 -0.270096,0.154341 -0.677996,0.154341 z"
           style="font-style:italic;font-family:'DIN Alternate';-inkscape-font-specification:'DIN Alternate Italic';fill:#0d6efd;fill-opacity:1"
           id="path64149" />
        <path
           d="m 74.974583,59.029661 h -0.573264 l -0.176389,0.876434 h 0.573264 l -0.68902,3.434074 q -0.132291,0.677996 0.192926,1.036286 0.308681,0.374827 0.915018,0.374827 h 0.600825 l 0.214975,-1.085895 h -0.429949 q -0.418924,0.01102 -0.319705,-0.424437 l 0.666971,-3.334855 h 0.837848 l 0.176389,-0.876434 h -0.837848 l 0.347266,-1.741842 h -1.152041 z"
           style="font-style:italic;font-family:'DIN Alternate';-inkscape-font-specification:'DIN Alternate Italic';fill:#0d6efd;fill-opacity:1"
           id="path64151" />
        <path
           d="m 76.925886,64.751282 h 1.152042 l 1.146528,-5.721621 h -1.152041 z m 1.37804,-6.884686 h 1.152041 l 0.231511,-1.152041 h -1.152041 z"
           style="font-style:italic;font-family:'DIN Alternate';-inkscape-font-specification:'DIN Alternate Italic';fill:#0d6efd;fill-opacity:1"
           id="path64153" />
      </g>
    </g>
    <text
       xml:space="preserve"
       transform="scale(0.26458333)"
       id="text13638"
       style="font-size:16px;line-height:1.25;font-family:sans-serif;white-space:pre;shape-inside:url(#rect13640)" />
  </g>
</svg>
